<?xml version="1.0" encoding="utf-8"?>
<!-- Generator: Adobe Illustrator 19.0.0, SVG Export Plug-In . SVG Version: 6.00 Build 0)  -->
<svg version="1.1" id="Ebene_1" xmlns="http://www.w3.org/2000/svg" xmlns:xlink="http://www.w3.org/1999/xlink" x="0px" y="0px"
	 viewBox="-41 164.9 512 512" style="enable-background:new -41 164.9 512 512;" xml:space="preserve">
<title>Ebene 1</title>
<path d="M113,507.8c-20.1,0-40.2-7.6-55.5-22.9c-14.8-14.8-23-34.5-23-55.5c0-20.9,8.2-40.6,23-55.5c30.6-30.6,80.3-30.6,110.9,0
	c14.8,14.8,23,34.5,23,55.5c0,20.9-8.2,40.6-23,55.5l0,0l0,0C153.2,500.1,133.1,507.8,113,507.8z M113,387.3
	c-10.8,0-21.6,4.1-29.8,12.3c-7.9,7.9-12.3,18.5-12.3,29.8c0,11.2,4.4,21.8,12.3,29.8c7.9,7.9,18.5,12.3,29.8,12.3
	s21.8-4.4,29.8-12.3l0,0c7.9-7.9,12.3-18.5,12.3-29.8c0-11.2-4.4-21.8-12.3-29.8C134.5,391.4,123.8,387.3,113,387.3z"/>
<g>
	<path d="M191.3,442.6c-8.7,0-15.9-6.9-16.2-15.6c-0.3-9,6.6-16.5,15.6-16.9l65-2.5c8.9-0.3,16.5,6.6,16.9,15.6
		c0.3,9-6.6,16.5-15.6,16.9l-65,2.5C191.8,442.6,191.6,442.6,191.3,442.6z"/>
</g>
<path id="SVGID_13_" d="M373.3,458.3c20.2-20.2,20.2-52.9,0-73c-20.2-20.2-52.9-20.2-73,0c-20.2,20.2-20.2,52.9,0,73
	C320.4,478.5,353.1,478.5,373.3,458.3"/>
<path id="SVGID_1_" d="M289.3,280.8c20.2-20.2,20.2-52.9,0-73c-20.2-20.2-52.9-20.2-73,0c-20.2,20.2-20.2,52.9,0,73
	S269.1,301,289.3,280.8"/>
<path id="SVGID_2_" d="M291.3,639.3c20.2-20.2,20.2-52.9,0-73c-20.2-20.2-52.9-20.2-73,0s-20.2,52.9,0,73
	C238.4,659.5,271.1,659.5,291.3,639.3"/>
<g>
	<path d="M157.8,381.3c-3.2,0-6.4-0.9-9.3-2.9c-7.4-5.1-9.2-15.3-4.1-22.6l37.1-53.4c5.1-7.4,15.3-9.2,22.6-4.1
		c7.4,5.1,9.2,15.3,4.1,22.6l-37.1,53.4C168,378.8,162.9,381.3,157.8,381.3z"/>
</g>
<g>
	<path d="M200,559.8c-4.9,0-9.7-2.2-12.9-6.4l-39.4-51.7c-5.4-7.1-4.1-17.3,3.1-22.8c7.1-5.4,17.3-4.1,22.8,3.1l39.4,51.7
		c5.4,7.1,4.1,17.3-3.1,22.8C206.8,558.7,203.4,559.8,200,559.8z"/>
</g>
</svg>
